<svg width="974" height="198" viewBox="0 0 974 198" fill="none" xmlns="http://www.w3.org/2000/svg">
<path d="M59.4078 177.6C41.6745 177.6 27.4745 174.267 16.8078 167.6C6.14114 160.8 0.8078 150.467 0.8078 136.6C0.8078 129.267 2.07447 123.667 4.6078 119.8C7.14113 115.933 10.8745 114 15.8078 114C19.4078 114 22.3411 114.933 24.6078 116.8C26.8745 118.667 28.0078 121.067 28.0078 124C28.0078 126.667 27.8078 129 27.4078 131C27.4078 131.533 27.2745 132.467 27.0078 133.8C26.8745 135.133 26.8078 136.533 26.8078 138C26.8078 144 29.8078 148.467 35.8078 151.4C41.9411 154.333 50.4745 155.8 61.4078 155.8C72.7411 155.8 81.6078 153.8 88.0078 149.8C94.4078 145.667 97.6078 139.933 97.6078 132.6C97.6078 128.067 96.1411 124.2 93.2078 121C90.2745 117.667 86.6078 114.933 82.2078 112.8C77.8078 110.533 71.6078 107.8 63.6078 104.6C53.3411 100.6 44.9411 96.8 38.4078 93.2C32.0078 89.6 26.4745 84.7333 21.8078 78.6C17.2745 72.3333 15.0078 64.6 15.0078 55.4C15.0078 45.8 17.5411 37.2666 22.6078 29.8C27.8078 22.3333 35.2078 16.5333 44.8078 12.4C54.5411 8.26664 65.9411 6.19998 79.0078 6.19998C88.7411 6.19998 97.6745 7.66664 105.808 10.6C113.941 13.4 120.408 17.7333 125.208 23.6C130.141 29.4666 132.608 36.6666 132.608 45.2C132.608 53.6 131.341 59.9333 128.808 64.2C126.274 68.4666 122.541 70.6 117.608 70.6C114.141 70.6 111.208 69.5333 108.808 67.4C106.541 65.2666 105.408 62.7333 105.408 59.8C105.408 57.2666 105.608 54.9333 106.008 52.8C106.408 48.8 106.608 46.2666 106.608 45.2C106.608 39.6 103.874 35.3333 98.4078 32.4C92.9411 29.4666 86.1411 28 78.0078 28C66.5411 28 57.7411 30.1333 51.6078 34.4C45.6078 38.5333 42.6078 44.4 42.6078 52C42.6078 57.0666 44.1411 61.4 47.2078 65C50.4078 68.6 54.3411 71.6 59.0078 74C63.6745 76.4 70.2078 79.2666 78.6078 82.6C88.7411 86.7333 96.8745 90.4666 103.008 93.8C109.141 97.1333 114.341 101.667 118.608 107.4C123.008 113.133 125.208 120.2 125.208 128.6C125.208 144.333 119.208 156.467 107.208 165C95.3411 173.4 79.4078 177.6 59.4078 177.6Z" fill="white"/>
<path d="M297.48 131.4C299.213 131.4 300.546 132.2 301.48 133.8C302.546 135.4 303.08 137.6 303.08 140.4C303.08 145.6 301.813 149.733 299.28 152.8C286.08 168.933 272.013 177 257.08 177C244.146 177 233.813 172 226.08 162C218.346 152 214.48 137.667 214.48 119C214.48 114.467 214.68 109.933 215.08 105.4C206.28 107 196.68 108.2 186.28 109C179.346 109.533 174.613 109.867 172.08 110C169.413 123.6 165.68 140.267 160.88 160C158.08 171.6 152.746 177.4 144.88 177.4C136.346 177.4 132.08 173.533 132.08 165.8C132.08 164.067 132.413 161.667 133.08 158.6C137.613 140.333 141.213 124.867 143.88 112.2L134.28 112.6C129.88 112.6 126.68 111.867 124.68 110.4C122.68 108.8 121.68 106.267 121.68 102.8C121.68 98.4 122.946 95.2 125.48 93.2C128.013 91.0666 132.213 89.8667 138.08 89.6L148.68 89.2C152.146 70.4 153.88 56.0666 153.88 46.2C153.88 39.9333 152.946 35.6666 151.08 33.4C149.213 31.1333 146.746 30 143.68 30C134.346 30 123.813 37.8 112.08 53.4C110.346 55.6666 108.413 56.8 106.28 56.8C104.413 56.8 102.813 55.9333 101.48 54.2C100.146 52.4666 99.4797 50.2666 99.4797 47.6C99.4797 43.4666 101.146 39.0666 104.48 34.4C110.346 26.2666 117.746 19.6 126.68 14.4C135.613 9.06664 144.68 6.39997 153.88 6.39997C162.546 6.39997 169.213 9.39997 173.88 15.4C178.68 21.2666 181.08 30.4666 181.08 43C181.08 54.0666 179.48 69.0666 176.28 88L195.88 87C204.28 86.6 211.48 85.9333 217.48 85C219.88 70.3333 223.546 56.6 228.48 43.8C233.413 31 239.546 20.6 246.88 12.6C254.213 4.59998 262.413 0.599976 271.48 0.599976C278.146 0.599976 283.413 3.26664 287.28 8.59998C291.146 13.8 293.08 20.6666 293.08 29.2C293.08 62.2666 276.213 85.2 242.48 98C242.08 103.333 241.88 108.867 241.88 114.6C241.88 128.6 243.613 138.533 247.08 144.4C250.546 150.267 255.413 153.2 261.68 153.2C267.146 153.2 272.146 151.8 276.68 149C281.213 146.067 286.346 141.133 292.08 134.2C293.68 132.333 295.48 131.4 297.48 131.4ZM270.48 18C267.546 18 264.413 20.6666 261.08 26C257.88 31.3333 254.813 38.6 251.88 47.8C248.946 57 246.613 67.0666 244.88 78C255.546 73.6 263.413 67.3333 268.48 59.2C273.546 51.0666 276.08 40.6 276.08 27.8C276.08 24.7333 275.546 22.3333 274.48 20.6C273.413 18.8666 272.08 18 270.48 18Z" fill="white"/>
<path d="M323.289 177C311.422 177 300.689 174.333 291.089 169C281.622 163.667 274.089 155.867 268.489 145.6C262.889 135.2 260.089 122.8 260.089 108.4C260.089 88.1333 263.756 70.2666 271.089 54.8C278.556 39.3333 288.622 27.4 301.289 19C314.089 10.6 328.222 6.39997 343.689 6.39997C355.556 6.39997 366.222 9.06664 375.689 14.4C385.289 19.7333 392.889 27.6 398.489 38C404.089 48.2666 406.889 60.6 406.889 75C406.889 95.2666 403.156 113.133 395.689 128.6C388.356 144.067 378.289 156 365.489 164.4C352.822 172.8 338.756 177 323.289 177ZM325.289 153.4C335.689 153.4 344.822 150.2 352.689 143.8C360.689 137.4 366.822 128.533 371.089 117.2C375.356 105.733 377.489 92.8 377.489 78.4C377.489 62.5333 374.156 50.5333 367.489 42.4C360.822 34.1333 352.222 30 341.689 30C331.422 30 322.356 33.2 314.489 39.6C306.622 45.8666 300.489 54.7333 296.089 66.2C291.689 77.5333 289.489 90.4666 289.489 105C289.489 120.867 292.822 132.933 299.489 141.2C306.156 149.333 314.756 153.4 325.289 153.4Z" fill="white"/>
<path d="M545.17 56.8C545.17 68.1333 542.237 78.5333 536.37 88C530.504 97.4666 521.97 105.2 510.77 111.2C499.57 117.2 486.237 120.733 470.77 121.8L462.17 170C458.837 188.533 449.77 197.8 434.97 197.8C426.837 197.8 419.304 195.4 412.37 190.6C405.57 185.8 400.104 178.467 395.97 168.6C391.837 158.733 389.77 146.6 389.77 132.2C389.77 105.133 394.104 82.2 402.77 63.4C411.57 44.4666 423.304 30.3333 437.97 21C452.77 11.5333 469.037 6.79998 486.77 6.79998C499.304 6.79998 509.904 8.99998 518.57 13.4C527.37 17.8 533.97 23.8 538.37 31.4C542.904 38.8666 545.17 47.3333 545.17 56.8ZM474.37 101.2C501.704 97.7333 515.37 83.5333 515.37 58.6C515.37 49.8 512.437 42.6666 506.57 37.2C500.837 31.6 491.904 28.8 479.77 28.8C466.037 28.8 454.037 33.1333 443.77 41.8C433.637 50.4666 425.77 62.5333 420.17 78C414.704 93.3333 411.97 110.867 411.97 130.6C411.97 138.867 412.77 146.2 414.37 152.6C416.104 159 418.237 164 420.77 167.6C423.437 171.067 425.97 172.8 428.37 172.8C431.704 172.8 434.237 168.2 435.97 159L442.57 121.2C437.37 120.4 435.104 120.067 435.77 120.2C431.77 119.533 429.17 118.333 427.97 116.6C426.77 114.733 426.17 112.4 426.17 109.6C426.17 106.667 426.97 104.333 428.57 102.6C430.304 100.867 432.637 100 435.57 100C436.904 100 437.904 100.067 438.57 100.2C441.77 100.733 444.237 101.067 445.97 101.2C447.704 90.8 450.17 76.8666 453.37 59.4C454.17 54.8666 455.97 51.6666 458.77 49.8C461.704 47.8 465.104 46.8 468.97 46.8C473.37 46.8 476.504 47.6666 478.37 49.4C480.37 51 481.37 53.6 481.37 57.2C481.37 59.3333 481.237 61.0666 480.97 62.4L474.37 101.2Z" fill="white"/>
<path d="M587.508 177C575.641 177 564.908 174.333 555.308 169C545.841 163.667 538.308 155.867 532.708 145.6C527.108 135.2 524.308 122.8 524.308 108.4C524.308 88.1333 527.974 70.2666 535.308 54.8C542.774 39.3333 552.841 27.4 565.508 19C578.308 10.6 592.441 6.39997 607.908 6.39997C619.774 6.39997 630.441 9.06664 639.908 14.4C649.508 19.7333 657.108 27.6 662.708 38C668.308 48.2666 671.108 60.6 671.108 75C671.108 95.2666 667.375 113.133 659.908 128.6C652.575 144.067 642.508 156 629.708 164.4C617.041 172.8 602.974 177 587.508 177ZM589.508 153.4C599.908 153.4 609.041 150.2 616.908 143.8C624.908 137.4 631.041 128.533 635.308 117.2C639.574 105.733 641.708 92.8 641.708 78.4C641.708 62.5333 638.374 50.5333 631.708 42.4C625.041 34.1333 616.441 30 605.908 30C595.641 30 586.574 33.2 578.708 39.6C570.841 45.8666 564.708 54.7333 560.308 66.2C555.908 77.5333 553.708 90.4666 553.708 105C553.708 120.867 557.041 132.933 563.708 141.2C570.374 149.333 578.974 153.4 589.508 153.4Z" fill="white"/>
<path d="M840.989 131.4C842.722 131.4 844.056 132.2 844.989 133.8C846.056 135.4 846.589 137.6 846.589 140.4C846.589 145.6 845.322 149.733 842.789 152.8C836.389 160.533 829.922 166.533 823.389 170.8C816.856 174.933 809.122 177 800.189 177C791.522 177 784.122 174.667 777.989 170C771.989 165.333 766.256 157.333 760.789 146C756.389 136.933 752.922 130.267 750.389 126C747.856 121.6 745.322 118.467 742.789 116.6C740.389 114.733 737.389 113.6 733.789 113.2C733.256 116 731.722 124.8 729.189 139.6C728.122 146.267 727.456 150.333 727.189 151.8C725.856 159.933 723.189 166.2 719.189 170.6C715.189 174.867 709.122 177 700.989 177C692.056 177 684.122 174.4 677.189 169.2C670.389 163.867 665.122 156.533 661.389 147.2C657.656 137.733 655.789 127 655.789 115C655.789 92.6 659.656 73.2666 667.389 57C675.256 40.7333 686.189 28.3333 700.189 19.8C714.322 11.1333 730.589 6.79998 748.989 6.79998C761.789 6.79998 772.522 8.73331 781.189 12.6C789.856 16.4666 796.256 21.8 800.389 28.6C804.656 35.4 806.789 43.0666 806.789 51.6C806.789 59.0666 804.989 66.4 801.389 73.6C797.922 80.6666 792.656 86.9333 785.589 92.4C778.522 97.8666 769.922 101.933 759.789 104.6C766.189 106.333 771.122 109.133 774.589 113C778.056 116.867 781.522 122.533 784.989 130C788.722 138 792.389 143.867 795.989 147.6C799.722 151.333 803.989 153.2 808.789 153.2C813.056 153.2 817.122 151.8 820.989 149C824.856 146.067 829.722 141.133 835.589 134.2C837.189 132.333 838.989 131.4 840.989 131.4ZM706.189 113C701.656 113 698.522 111.933 696.789 109.8C695.189 107.667 694.389 105.267 694.389 102.6C694.389 99.4 695.389 96.8666 697.389 95C699.522 93.1333 701.922 92.2 704.589 92.2H709.589C711.722 79.1333 713.722 67.8666 715.589 58.4C717.322 49.7333 722.922 45.4 732.389 45.4C739.989 45.4 743.789 48.8 743.789 55.6C743.789 57.0666 743.722 58.2 743.589 59L737.589 92.2C744.789 91.8 751.322 90.0666 757.189 87C763.189 83.9333 767.922 79.6666 771.389 74.2C774.989 68.7333 776.789 62.5333 776.789 55.6C776.789 47.2 773.922 40.6 768.189 35.8C762.456 31 754.056 28.6 742.989 28.6C729.922 28.6 718.456 31.8666 708.589 38.4C698.856 44.8 691.256 54.4 685.789 67.2C680.322 79.8666 677.589 95.3333 677.589 113.6C677.589 122.133 678.456 129.467 680.189 135.6C681.922 141.733 684.056 146.333 686.589 149.4C689.122 152.467 691.522 154 693.789 154C695.522 154 696.922 153.133 697.989 151.4C699.189 149.667 700.122 146.867 700.789 143L706.189 113Z" fill="white"/>
<path d="M850.766 177C841.566 177 833.232 174.733 825.766 170.2C818.432 165.667 812.632 159.133 808.366 150.6C804.099 141.933 801.966 131.733 801.966 120C801.966 99.7333 806.299 81 814.966 63.8C823.632 46.4666 836.432 32.6 853.366 22.2C870.299 11.6666 890.632 6.39997 914.366 6.39997C920.499 6.39997 927.032 6.86664 933.966 7.79998C941.032 8.73331 947.432 10.1333 953.166 12C956.899 13.0666 958.766 15.7333 958.766 20C958.766 23.4666 957.432 26.7333 954.766 29.8C952.232 32.8666 949.232 34.4 945.766 34.4C944.699 34.4 943.899 34.3333 943.366 34.2C936.432 32.6 930.499 31.4666 925.566 30.8C920.632 30 915.432 29.6 909.966 29.6C893.032 29.6 878.632 33.7333 866.766 42C854.899 50.1333 846.032 60.9333 840.166 74.4C834.299 87.8666 831.366 102.4 831.366 118C831.366 129.333 833.566 138.133 837.966 144.4C842.499 150.533 848.366 153.6 855.566 153.6C863.699 153.6 870.832 150.267 876.966 143.6C883.099 136.933 888.699 126.133 893.766 111.2C898.832 96.2666 903.832 76 908.766 50.4C909.566 46.6666 911.166 44.1333 913.566 42.8C915.966 41.4666 919.166 40.8 923.166 40.8C932.632 40.8 937.366 43.8666 937.366 50C937.366 51.0666 937.166 52.4 936.766 54C933.299 66.9333 930.099 81.2666 927.166 97C924.366 112.6 922.966 124.467 922.966 132.6C922.966 139.8 924.032 145.067 926.166 148.4C928.299 151.6 931.566 153.2 935.966 153.2C940.232 153.2 944.299 151.8 948.166 149C952.032 146.067 956.899 141.133 962.766 134.2C964.366 132.333 966.166 131.4 968.166 131.4C969.899 131.4 971.232 132.2 972.166 133.8C973.232 135.4 973.766 137.6 973.766 140.4C973.766 145.6 972.499 149.733 969.966 152.8C963.432 160.667 957.032 166.667 950.766 170.8C944.499 174.933 936.832 177 927.766 177C918.432 177 910.899 174.333 905.166 169C899.432 163.533 895.832 155.867 894.366 146C884.499 166.667 869.966 177 850.766 177Z" fill="white"/>
</svg>
